<?xml version="1.0" encoding="UTF-8"?>
<svg width="326px" height="12px" viewBox="0 0 326 12" version="1.1" xmlns="http://www.w3.org/2000/svg" xmlns:xlink="http://www.w3.org/1999/xlink">
    <!-- Generator: Sketch 41.2 (35397) - http://www.bohemiancoding.com/sketch -->
    <title>Page 1 Copy</title>
    <desc>Created with Sketch.</desc>
    <defs></defs>
    <g id="Page-1" stroke="none" stroke-width="1" fill="none" fill-rule="evenodd">
        <g id="Main" transform="translate(-345.000000, -1204.000000)" stroke="#8E8E8E" stroke-width="2">
            <path d="M346,1214.64326 L355.20865,1208.86993 C363.38991,1203.73993 373.77664,1203.70786 381.989583,1208.78763 L383.413016,1209.66781 C391.762738,1214.83143 402.344205,1214.70624 410.568739,1209.34596 L410.704746,1209.25786 C418.917689,1203.90492 429.482155,1203.77162 437.827627,1208.91553 L439.321768,1209.83666 C447.555189,1214.91102 457.959306,1214.85499 466.137088,1209.69215 L466.996403,1209.14929 C475.356944,1203.8713 486.024188,1203.93969 494.316725,1209.32432 C502.584921,1214.69349 513.21739,1214.77849 521.569817,1209.54108 L522.640869,1208.86993 C530.822129,1203.73993 541.208859,1203.70786 549.421802,1208.78763 L550.845621,1209.66781 C559.194957,1214.83143 569.776424,1214.70624 578.001345,1209.34596 L578.136965,1209.25786 C586.350294,1203.90492 596.914374,1203.77162 605.260232,1208.91553 L606.754373,1209.83666 C614.987408,1214.91102 625.391525,1214.85499 633.569694,1209.69215 L634.429008,1209.14929 C642.789549,1203.8713 653.456793,1203.93969 661.748944,1209.32432 L669.924795,1214.6336" id="Page-1-Copy"></path>
        </g>
    </g>
</svg>